<svg xmlns="http://www.w3.org/2000/svg" width="24" height="24" viewBox="0 0 24 24">
    <g fill="none" fill-rule="evenodd">
        <path d="M0 0h24v24H0z"/>
        <path fill="#999" fill-rule="nonzero" d="M10.25 18c.332 0 .65-.125.887-.351l4.5-4.311c.232-.22.363-.523.363-.838 0-.315-.13-.617-.363-.838l-4.5-4.31a1.294 1.294 0 0 0-1.766-.007c-.235.22-.369.523-.37.84-.001.317.13.621.363.843l3.624 3.472-3.625 3.473a1.156 1.156 0 0 0-.363.842c.001.317.135.62.37.84.236.222.552.346.88.345z"/>
    </g>
</svg>
