<svg xmlns="http://www.w3.org/2000/svg" viewBox="0 0 13 11" width="13" height="11">
	<style>
		tspan { white-space:pre }
		.shp0 { fill: #f58121 } 
	</style>
	<path id="Shape 3" class="shp0" d="M6.93,10.94c0.14,0 0.28,0 0.42,0c1.35,-0.05 2.7,-0.1 4.05,-0.17c0.53,-0.03 0.69,-0.28 0.55,-0.79c-0.15,-0.57 -0.44,-1.06 -0.82,-1.5c-0.57,-0.66 -1.32,-1 -2.1,-1.32c-1.13,-0.46 -1.2,-0.77 -0.58,-1.81c0.26,-0.43 0.49,-0.88 0.66,-1.34c0.29,-0.77 0.34,-1.55 0.01,-2.33c-0.49,-1.16 -1.62,-1.8 -2.94,-1.65c-1.29,0.14 -2.23,0.96 -2.48,2.16c-0.16,0.77 -0.01,1.5 0.31,2.2c0.22,0.47 0.5,0.92 0.74,1.38c0.31,0.59 0.22,0.89 -0.36,1.2c-0.36,0.18 -0.74,0.32 -1.1,0.48c-1.09,0.5 -1.86,1.29 -2.22,2.46c-0.18,0.59 -0.03,0.84 0.57,0.88c1.76,0.09 3.52,0.16 5.28,0.23c0,-0.02 0,-0.04 0,-0.06z" />
</svg>