<svg xmlns="http://www.w3.org/2000/svg" viewBox="0 0 13 13" width="13" height="13">
	<style>
		tspan { white-space:pre }
		.shp0 { fill: #f58121 } 
	</style>
	<path id="Shape 6" class="shp0" d="M7.86 12C6.41 11.94 4.97 11.88 3.53 11.81C3.05 11.78 2.58 11.72 2.12 11.66C1.65 11.6 1.49 11.44 1.4 10.96C1.15 9.65 0.94 8.33 1.01 7C1.08 5.81 1.26 4.62 1.42 3.44C1.47 3.02 1.69 2.85 2.09 2.81C2.59 2.76 3.09 2.7 3.6 2.67C3.85 2.66 3.99 2.56 4.03 2.3C4.05 2.19 4.1 2.08 4.12 1.97C4.22 1.34 4.6 1.09 5.18 1.06C6.52 0.98 7.86 0.96 9.2 1.11C9.52 1.15 9.73 1.32 9.83 1.64C9.85 1.71 9.87 1.79 9.9 1.86C10.13 2.64 10.13 2.64 10.9 2.72C11.22 2.75 11.55 2.77 11.87 2.8C12.37 2.84 12.56 3.03 12.66 3.55C13.11 6.02 13.11 8.48 12.65 10.95C12.56 11.42 12.38 11.62 11.94 11.66C11.04 11.74 10.14 11.81 9.24 11.87C8.78 11.91 8.32 11.94 7.86 11.97C7.86 11.98 7.86 11.99 7.86 12ZM10.39 6.92C10.39 4.92 8.86 3.28 7.01 3.29C5.18 3.3 3.58 5 3.61 6.92C3.64 8.96 5.07 10.58 7.1 10.57C8.91 10.55 10.39 8.92 10.39 6.92ZM9.14 6.92C9.14 8.2 8.22 9.22 7.03 9.24C5.86 9.26 4.83 8.18 4.84 6.94C4.84 5.64 5.81 4.64 7.07 4.64C8.22 4.65 9.14 5.66 9.14 6.92Z" />
</svg>