<svg xmlns="http://www.w3.org/2000/svg" viewBox="0 0 11 10" width="11" height="10">
	<style>
		tspan { white-space:pre }
		.shp0 { fill: #f58121 } 
	</style>
	<path id="Shape 4" class="shp0" d="M10.99,6.71c0,-0.68 0,-1.37 0,-2.05c0,-0.16 0,-0.32 0,-0.47c0,-0.07 -0.03,-0.09 -0.09,-0.05c-0.07,0.05 -0.14,0.09 -0.2,0.14c-0.33,0.24 -0.65,0.48 -0.98,0.72c-0.33,0.24 -0.65,0.48 -0.98,0.71c-0.2,0.14 -0.39,0.29 -0.59,0.44c-0.32,0.23 -0.64,0.46 -0.95,0.7c-0.38,0.29 -0.82,0.47 -1.3,0.54c-0.52,0.07 -1.02,0.01 -1.51,-0.19c-0.22,-0.09 -0.41,-0.21 -0.6,-0.35c-0.22,-0.16 -0.42,-0.32 -0.64,-0.48c-0.36,-0.26 -0.72,-0.52 -1.08,-0.78c-0.3,-0.22 -0.59,-0.44 -0.88,-0.66c-0.26,-0.19 -0.52,-0.38 -0.78,-0.56c-0.1,-0.07 -0.2,-0.15 -0.3,-0.22c-0.02,-0.01 -0.06,-0.03 -0.07,-0.02c-0.02,0.01 -0.02,0.04 -0.03,0.07c0,0.06 0,0.11 0,0.17c0,1.59 0,3.18 0,4.78c0,0.09 0.02,0.18 0.04,0.26c0.03,0.13 0.13,0.2 0.26,0.23c0.2,0.04 0.4,0.06 0.61,0.09c0.31,0.04 0.62,0.07 0.93,0.1c0.47,0.04 0.93,0.09 1.4,0.11c0.61,0.03 1.21,0.05 1.82,0.06c0.96,0.02 1.92,-0.01 2.87,-0.08c0.51,-0.04 1.02,-0.08 1.53,-0.13c0.36,-0.03 0.73,-0.08 1.09,-0.12c0.09,-0.01 0.18,-0.03 0.26,-0.07c0.17,-0.09 0.19,-0.25 0.19,-0.4c0,-0.82 0,-1.65 0,-2.47c0,0 0,0 0,0zM5.5,1.01c-0.17,0 -0.33,0 -0.5,0c-0.46,0.01 -0.93,0.02 -1.39,0.03c-0.3,0.01 -0.6,0.03 -0.9,0.05c-0.35,0.03 -0.7,0.06 -1.05,0.09c-0.13,0.01 -0.26,0.02 -0.39,0.03c-0.28,0.03 -0.56,0.06 -0.84,0.1c-0.29,0.04 -0.41,0.15 -0.42,0.44c0,0.11 0,0.23 0,0.34c0,0.06 0.01,0.13 0.03,0.19c0.07,0.22 0.21,0.4 0.39,0.54c0.34,0.27 0.7,0.53 1.05,0.79c0.28,0.21 0.57,0.42 0.86,0.63c0.34,0.25 0.68,0.51 1.02,0.76c0.32,0.24 0.64,0.47 0.96,0.71c0.13,0.1 0.27,0.2 0.41,0.29c0.19,0.11 0.4,0.17 0.62,0.19c0.39,0.03 0.74,-0.05 1.05,-0.28c0.34,-0.24 0.67,-0.5 1,-0.74c0.28,-0.21 0.57,-0.41 0.85,-0.62c0.19,-0.14 0.39,-0.29 0.58,-0.43c0.29,-0.22 0.59,-0.43 0.88,-0.65c0.17,-0.13 0.34,-0.25 0.51,-0.38c0.17,-0.12 0.34,-0.23 0.47,-0.38c0.11,-0.12 0.21,-0.24 0.26,-0.4c0.07,-0.22 0.04,-0.43 0.02,-0.65c-0.02,-0.16 -0.11,-0.26 -0.27,-0.3c-0.09,-0.02 -0.19,-0.03 -0.28,-0.04c-0.25,-0.03 -0.5,-0.07 -0.75,-0.09c-0.36,-0.04 -0.72,-0.07 -1.08,-0.09c-0.52,-0.04 -1.04,-0.07 -1.56,-0.1c-0.51,-0.02 -1.02,-0.02 -1.53,-0.03c0,0 0,0.01 0,0.01z" />
</svg>