<svg xmlns="http://www.w3.org/2000/svg" viewBox="0 0 14 14" width="14" height="14">
	<style>
		tspan { white-space:pre }
		.shp0 { fill: #f58121 } 
	</style>
	<path id="Search Icon" class="shp0" d="M13 14C12.73 14 12.48 13.89 12.3 13.7L9.62 11.03C8.7 11.66 7.61 12 6.5 12C3.46 12 1 9.54 1 6.5C1 3.46 3.46 1 6.5 1C9.54 1 12 3.46 12 6.5C12 7.61 11.66 8.7 11.03 9.62L13.71 12.3C13.89 12.48 14 12.73 14 13C14 13.55 13.55 14 13 14ZM6.5 3C4.57 3 3 4.57 3 6.5C3 8.43 4.57 10 6.5 10C8.43 10 10 8.43 10 6.5C10 4.57 8.43 3 6.5 3Z" />
</svg>