<svg xmlns="http://www.w3.org/2000/svg" viewBox="0 0 10 13" width="10" height="13">
	<style>
		tspan { white-space:pre }
		.shp0 { fill: #f58121 } 
	</style>
	<path id="Shape 5" class="shp0" d="M4.59 12C4.04 11.95 3.49 11.91 2.93 11.84C2.48 11.79 2.02 11.72 1.57 11.64C1.15 11.57 1 11.39 1 10.96C1 8.08 1 5.19 1 2.3C1 2.16 1 2.02 1.01 1.88C1.02 1.65 1.14 1.46 1.35 1.41C1.78 1.32 2.22 1.26 2.65 1.2C3.04 1.15 3.42 1.12 3.81 1.09C5.66 0.93 7.5 0.96 9.33 1.32C9.88 1.43 10 1.58 10 2.14C10 4.14 9.99 6.14 10 8.15C10 8.55 9.86 8.89 9.65 9.21C9.03 10.15 8.25 10.96 7.31 11.57C7.01 11.77 6.64 11.86 6.3 12C5.73 12 5.16 12 4.59 12ZM5.49 3.93C6.25 3.93 7.01 3.93 7.77 3.93C8.22 3.93 8.21 3.93 8.22 3.47C8.22 3.26 8.14 3.19 7.94 3.19C6.32 3.2 4.7 3.2 3.08 3.19C2.72 3.19 2.81 3.43 2.79 3.63C2.77 3.84 2.84 3.93 3.07 3.93C3.88 3.92 4.68 3.93 5.49 3.93ZM5.5 5.39C6.31 5.39 7.13 5.4 7.94 5.39C8.02 5.39 8.17 5.36 8.18 5.33C8.2 5.15 8.22 4.95 8.18 4.77C8.17 4.72 7.98 4.68 7.87 4.68C6.27 4.67 4.68 4.68 3.09 4.67C2.85 4.67 2.77 4.74 2.79 4.97C2.82 5.17 2.71 5.41 3.08 5.4C3.89 5.38 4.69 5.39 5.5 5.39ZM5.5 6.86C6.31 6.86 7.12 6.86 7.94 6.85C8.02 6.85 8.17 6.83 8.17 6.8C8.2 6.61 8.22 6.42 8.18 6.24C8.17 6.19 7.98 6.14 7.87 6.14C6.31 6.14 4.76 6.14 3.2 6.14C2.79 6.14 2.8 6.14 2.79 6.57C2.79 6.8 2.87 6.86 3.08 6.86C3.89 6.85 4.69 6.86 5.5 6.86ZM8.87 8C8.83 7.99 8.79 7.96 8.75 7.96C8.18 7.96 7.61 7.94 7.05 7.97C6.49 8.01 6.06 8.48 6.04 9.05C6.02 9.59 6.04 10.13 6.04 10.67C6.03 10.88 6.14 10.9 6.29 10.83C6.59 10.69 6.76 10.45 6.76 10.11C6.77 9.79 6.76 9.48 6.76 9.16C6.77 8.84 6.91 8.7 7.22 8.7C7.54 8.69 7.86 8.71 8.18 8.69C8.59 8.66 8.84 8.41 8.87 8Z" />
</svg>